# xmcd CD database file
#
# Track frame offsets:
#	150
#	26885
#	42830
#	65705
#	90192
#	119195
#	138244
#	155786
#	186205
#	207294
#
# Disc length: 3112 seconds
#
# Revision: 1
# Processed by: cddbd v1.5.2PL0 Copyright (c) Steve Scherf et al.
# Submitted via: CDex 1.70beta2
#
DISCID=920c260a
DTITLE=Ferris High School Jazz Orchestra, DelGiudice Small Group, EWU Jazz Ensemble - Fred Sturm Jazz Residency: Wed., Jan. 24, 2007 @ EWU Music Building Rectial Hall
DYEAR=2007
DGENRE=Jazz
TTITLE0=Ferris High School Jazz Orchestra - The Cheese that Time Forgot
TTITLE1=Ferris High School Jazz Orchestra - C-Jam Blues (ala Mambo!)
TTITLE2=Ferris High School Jazz Orchestra - Chronometry
TTITLE3=DelGiudice Small Group - Cousin Mary
TTITLE4=EWU Jazz Ensemble - Boogaloo Blue
TTITLE5=EWU Jazz Ensemble - Blue Opening
TTITLE6=EWU Jazz Ensemble - Skyhawk
TTITLE7=EWU Jazz Ensemble - Cerulean Sky
TTITLE8=EWU Jazz Ensemble - Queso Cabeza
TTITLE9=EWU Jazz Ensemble - Libertango
EXTD=YEAR: 2007
EXTT0=
EXTT1=
EXTT2=
EXTT3=
EXTT4=
EXTT5=
EXTT6=
EXTT7=
EXTT8=
EXTT9=
PLAYORDER=
